<svg xmlns="http://www.w3.org/2000/svg" xmlns:xlink="http://www.w3.org/1999/xlink" width="500" zoomAndPan="magnify" viewBox="0 0 375 374.999991" height="500" preserveAspectRatio="xMidYMid meet" version="1.2"><defs><filter x="0%" y="0%" width="100%" filterUnits="objectBoundingBox" id="58ea97a17b" height="100%"><feColorMatrix values="0 0 0 0 1 0 0 0 0 1 0 0 0 0 1 0 0 0 1 0" type="matrix" in="SourceGraphic"/></filter><clipPath id="29d78ec631"><path d="M 187.5 -88.648438 C 23.386719 -88.648438 -109.648438 44.386719 -109.648438 208.5 C -109.648438 372.613281 23.386719 505.648438 187.5 505.648438 C 351.613281 505.648438 484.648438 372.613281 484.648438 208.5 C 484.648438 44.386719 351.613281 -88.648438 187.5 -88.648438 Z M 187.5 -88.648438 "/></clipPath><clipPath id="3f50936888"><rect x="0" width="375" y="0" height="375"/></clipPath><clipPath id="4c2d1bff25"><path d="M 55.03125 127.484375 L 194.980469 127.484375 L 194.980469 267.433594 L 55.03125 267.433594 Z M 55.03125 127.484375 "/></clipPath><clipPath id="7b5500edc9"><path d="M 125.003906 127.484375 C 86.359375 127.484375 55.03125 158.8125 55.03125 197.457031 C 55.03125 236.101562 86.359375 267.433594 125.003906 267.433594 C 163.652344 267.433594 194.980469 236.101562 194.980469 197.457031 C 194.980469 158.8125 163.652344 127.484375 125.003906 127.484375 Z M 125.003906 127.484375 "/></clipPath><clipPath id="2dd06da6d2"><path d="M 79.476562 151.925781 L 170.535156 151.925781 L 170.535156 242.988281 L 79.476562 242.988281 Z M 79.476562 151.925781 "/></clipPath><clipPath id="6bbc435b94"><path d="M 125.003906 151.925781 C 99.859375 151.925781 79.476562 172.3125 79.476562 197.457031 C 79.476562 222.601562 99.859375 242.988281 125.003906 242.988281 C 150.152344 242.988281 170.535156 222.601562 170.535156 197.457031 C 170.535156 172.3125 150.152344 151.925781 125.003906 151.925781 Z M 125.003906 151.925781 "/></clipPath><clipPath id="4b8252e800"><path d="M 180.019531 127.484375 L 319.96875 127.484375 L 319.96875 267.433594 L 180.019531 267.433594 Z M 180.019531 127.484375 "/></clipPath><clipPath id="60a2a6d48e"><path d="M 249.996094 127.484375 C 211.347656 127.484375 180.019531 158.8125 180.019531 197.457031 C 180.019531 236.101562 211.347656 267.433594 249.996094 267.433594 C 288.640625 267.433594 319.96875 236.101562 319.96875 197.457031 C 319.96875 158.8125 288.640625 127.484375 249.996094 127.484375 Z M 249.996094 127.484375 "/></clipPath><clipPath id="2004d84d7d"><path d="M 204.464844 151.925781 L 295.523438 151.925781 L 295.523438 242.988281 L 204.464844 242.988281 Z M 204.464844 151.925781 "/></clipPath><clipPath id="e0f7382c36"><path d="M 249.996094 151.925781 C 224.847656 151.925781 204.464844 172.3125 204.464844 197.457031 C 204.464844 222.601562 224.847656 242.988281 249.996094 242.988281 C 275.140625 242.988281 295.523438 222.601562 295.523438 197.457031 C 295.523438 172.3125 275.140625 151.925781 249.996094 151.925781 Z M 249.996094 151.925781 "/></clipPath><clipPath id="fb8668ef9b"><path d="M 294 32 L 319 32 L 319 208 L 294 208 Z M 294 32 "/></clipPath><clipPath id="ceaf7f5db8"><path d="M 318.28125 32.105469 L 318.996094 207.117188 L 295.269531 207.210938 L 294.550781 32.203125 Z M 318.28125 32.105469 "/></clipPath><clipPath id="f005d7c4b5"><path d="M 175 167 L 200 167 L 200 343 L 175 343 Z M 175 167 "/></clipPath><clipPath id="8a569a81f4"><path d="M 199 167.796875 L 199.714844 342.804688 L 175.988281 342.902344 L 175.269531 167.894531 Z M 199 167.796875 "/></clipPath></defs><g id="8cafc1ec21"><rect x="0" width="375" y="0" height="374.999991" style="fill:#ffffff;fill-opacity:1;stroke:none;"/><rect x="0" width="375" y="0" height="374.999991" style="fill:#ffffff;fill-opacity:1;stroke:none;"/><g mask="url(#2e3bd9320d)" transform="matrix(1,0,0,1,0,0)"><g clip-path="url(#3f50936888)"><g clip-rule="nonzero" clip-path="url(#29d78ec631)"><rect x="0" width="375" height="375" y="0" style="fill:#050a30;fill-opacity:1;stroke:none;"/></g></g><mask id="2e3bd9320d"><g filter="url(#58ea97a17b)"><rect x="0" width="375" y="0" height="374.999991" style="fill:#000000;fill-opacity:0.7;stroke:none;"/></g></mask></g><g clip-rule="nonzero" clip-path="url(#4c2d1bff25)"><g clip-rule="nonzero" clip-path="url(#7b5500edc9)"><path style=" stroke:none;fill-rule:nonzero;fill:#050a30;fill-opacity:1;" d="M 55.03125 127.484375 L 194.980469 127.484375 L 194.980469 267.433594 L 55.03125 267.433594 Z M 55.03125 127.484375 "/></g></g><g clip-rule="nonzero" clip-path="url(#2dd06da6d2)"><g clip-rule="nonzero" clip-path="url(#6bbc435b94)"><path style=" stroke:none;fill-rule:nonzero;fill:#f4f6fc;fill-opacity:1;" d="M 79.476562 151.925781 L 170.535156 151.925781 L 170.535156 242.988281 L 79.476562 242.988281 Z M 79.476562 151.925781 "/></g></g><g clip-rule="nonzero" clip-path="url(#4b8252e800)"><g clip-rule="nonzero" clip-path="url(#60a2a6d48e)"><path style=" stroke:none;fill-rule:nonzero;fill:#050a30;fill-opacity:1;" d="M 180.019531 127.484375 L 319.96875 127.484375 L 319.96875 267.433594 L 180.019531 267.433594 Z M 180.019531 127.484375 "/></g></g><g clip-rule="nonzero" clip-path="url(#2004d84d7d)"><g clip-rule="nonzero" clip-path="url(#e0f7382c36)"><path style=" stroke:none;fill-rule:nonzero;fill:#f4f6fc;fill-opacity:1;" d="M 204.464844 151.925781 L 295.523438 151.925781 L 295.523438 242.988281 L 204.464844 242.988281 Z M 204.464844 151.925781 "/></g></g><g clip-rule="nonzero" clip-path="url(#fb8668ef9b)"><g clip-rule="nonzero" clip-path="url(#ceaf7f5db8)"><path style=" stroke:none;fill-rule:nonzero;fill:#050a30;fill-opacity:1;" d="M 318.28125 32.105469 L 318.996094 207.097656 L 295.269531 207.195312 L 294.550781 32.203125 Z M 318.28125 32.105469 "/></g></g><g clip-rule="nonzero" clip-path="url(#f005d7c4b5)"><g clip-rule="nonzero" clip-path="url(#8a569a81f4)"><path style=" stroke:none;fill-rule:nonzero;fill:#050a30;fill-opacity:1;" d="M 199 167.796875 L 199.714844 342.789062 L 175.988281 342.886719 L 175.269531 167.894531 Z M 199 167.796875 "/></g></g></g></svg>